<svg xmlns="http://www.w3.org/2000/svg" width="295" height="72" viewBox="0 0 295 72"><text transform="translate(91 57)" fill="#fff" font-size="46" font-family="Roboto-Regular, Roboto"><tspan x="0" y="0">JOURNAL</tspan></text><path d="M9.6,9.759a4.5,4.5,0,0,0-3.045,2.907L0,32.344l1.033,1.033L11.587,22.822a3.407,3.407,0,1,1,1.59,1.59L2.623,34.967,3.656,36l19.678-6.559A4.5,4.5,0,0,0,26.241,26.4L29.25,15.75l-9-9ZM35.011,5.215,30.785.989a3.377,3.377,0,0,0-4.775,0L22.034,4.965l9,9L35.011,9.99a3.377,3.377,0,0,0,0-4.775Z" transform="translate(0 16)" fill="#fff"/><text transform="translate(40 57)" fill="#fff" font-size="60" font-family="Roboto-Regular, Roboto"><tspan x="0" y="0">in</tspan></text></svg>