<svg xmlns="http://www.w3.org/2000/svg" width="777" height="524" viewBox="0 0 777 524"><rect width="777" height="524" rx="20" fill="#95a0ee"/><g transform="translate(70 72)" fill="#5645c5" stroke="#707070" stroke-width="1"><rect width="455" height="119" rx="10" stroke="none"/><rect x="0.5" y="0.5" width="454" height="118" rx="9.5" fill="none"/></g><g transform="translate(70 222)" fill="#214cc2" stroke="#707070" stroke-width="1"><rect width="136" height="264" rx="10" stroke="none"/><rect x="0.5" y="0.5" width="135" height="263" rx="9.5" fill="none"/></g><g transform="translate(407 350)" fill="#5645c5" stroke="#707070" stroke-width="1"><rect width="324" height="136" rx="10" stroke="none"/><rect x="0.5" y="0.5" width="323" height="135" rx="9.5" fill="none"/></g><g transform="translate(245 350)" fill="#5645c5" stroke="#707070" stroke-width="1"><rect width="123" height="136" rx="10" stroke="none"/><rect x="0.5" y="0.5" width="122" height="135" rx="9.5" fill="none"/></g><g transform="translate(245 222)" fill="#fff" stroke="#707070" stroke-width="1"><rect width="325" height="97" rx="10" stroke="none"/><rect x="0.5" y="0.5" width="324" height="96" rx="9.5" fill="none"/></g><g transform="translate(570 72)" fill="#214cc2" stroke="#707070" stroke-width="1"><rect width="161" height="119" rx="10" stroke="none"/><rect x="0.5" y="0.5" width="160" height="118" rx="9.5" fill="none"/></g><g transform="translate(593 222)" fill="#214cc2" stroke="#707070" stroke-width="1"><rect width="138" height="97" rx="10" stroke="none"/><rect x="0.5" y="0.5" width="137" height="96" rx="9.5" fill="none"/></g></svg>